<svg aria-hidden="true" style="position: absolute; width: 0; height: 0; overflow: hidden;" version="1.1" xmlns="http://www.w3.org/2000/svg" xmlns:xlink="http://www.w3.org/1999/xlink">
<defs>
<symbol id="welcome" viewBox="0 0 32 32">
<path fill="none" stroke="#fafafa" style="stroke: var(--color1, #fafafa)" stroke-linejoin="round" stroke-linecap="round" stroke-miterlimit="4" stroke-width="1.4545" d="M5.818 5.914v5.048c0 1.441 0.629 2.717 1.604 3.543 0.477 0.404 0.792 0.949 0.792 1.554v8.426c0 0.937 0.805 1.697 1.797 1.697s1.797-0.76 1.797-1.697v-8.426c0-0.605 0.315-1.151 0.792-1.554 0.975-0.826 1.604-2.102 1.604-3.543v0"></path>
<path fill="none" stroke="#fafafa" style="stroke: var(--color1, #fafafa)" stroke-linejoin="round" stroke-linecap="round" stroke-miterlimit="4" stroke-width="1.4545" d="M10.008 11.475v-5.657"></path>
<path fill="none" stroke="#fafafa" style="stroke: var(--color1, #fafafa)" stroke-linejoin="round" stroke-linecap="round" stroke-miterlimit="4" stroke-width="1.4545" d="M26.182 7.008c0-0.625-0.537-1.131-1.198-1.131h-1.198c-1.985 0-3.594 1.519-3.594 3.394v6.788c0 1.475 1.003 2.719 2.396 3.186v5.24c0 0.937 0.805 1.697 1.797 1.697s1.797-0.76 1.797-1.697v-17.477z"></path>
</symbol>
</defs>
</svg>
